# xmcd
#
# Track frame offsets: 
#        150
#        19282
#        25322
#        40858
#        60730
#        80201
#        94667
#        117330
#        122832
#        136437
#        148110
#        163092
#        169255
#        185587
#        196067
#        204346
#        223149
#        234234
#        246500
#        252534
#        263202
#        270435
#        281056
#        287636
#        300505
#
# Disc length: 4057 seconds
#
# Revision: 2
# Processed by: cddbd v1.5.2PL0 Copyright (c) Steve Scherf et al.
# Submitted via: ExactAudioCopy v0.99pb3
#
DISCID=810fd719
DTITLE=Atomic City Rhythm Rascals - Grinning Deer
DYEAR=2001
DGENRE=Bluegrass
TTITLE0=Two Steps Back - Bloomington
TTITLE1=White Face Reel
TTITLE2=Wobbling Lucy
TTITLE3=Robertson Mountain
TTITLE4=Nathan Ellner is Here - Old Hookie
TTITLE5=Shark in a Pine Tree
TTITLE6=The Wilder the Better - N.C.Breakdown
TTITLE7=Rocco and his Brothers
TTITLE8=Tam Lin Reel
TTITLE9=The Blarney Pilgrim
TTITLE10=Cherokee Shuffle
TTITLE11=Throughout
TTITLE12=Elzik's Farewell
TTITLE13=Jessica's Waltz
TTITLE14=Sail Away Ladies
TTITLE15=Home with the Girls - Cattle in the Cane
TTITLE16=The Clifts of Moher
TTITLE17=Liza Jane
TTITLE18=My One and Only Love
TTITLE19=Sandy Boys
TTITLE20=Jaybird
TTITLE21=Big Sciota
TTITLE22=Colored Aristocracy
TTITLE23=White Face Reel 2
TTITLE24=Someone to Watch Over Me
EXTD=
EXTT0=
EXTT1=
EXTT2=
EXTT3=
EXTT4=
EXTT5=
EXTT6=
EXTT7=
EXTT8=
EXTT9=
EXTT10=
EXTT11=
EXTT12=
EXTT13=
EXTT14=
EXTT15=
EXTT16=
EXTT17=
EXTT18=
EXTT19=
EXTT20=
EXTT21=
EXTT22=
EXTT23=
EXTT24=
PLAYORDER=
